<?xml version='1.0' encoding='utf-8'?>
<svg xmlns="http://www.w3.org/2000/svg" enable-background="new 0 0 576 720" version="1.1" viewBox="0 0 576 720"> <style type="text/css">.st0{fill:#EFAFB4;} .st1{fill:#432918;} .st2{fill:#ABD6D1;} .st3{fill:#DB959E;}</style> <path class="st0" d="m267.9 305.4c-11.6-4.7-26.8-5.4-34.7-15.6-8.7-11.5-0.1-28.3-5-41.7-7.4-18.1-27-13.2-44.6-15-18.3-2.4-28.5-10.8-38-24.4 7 5.4 20.6 2.8 29.7 0.1-4.1-8.6-2.1-18.8-0.1-28.3 3.5 15.8 27.9 15.2 41.6 17.5 17.6 3.9 34.4 6.5 42.5 22.3 8 14.4 5.5 31.8 2.9 47.7-2.6 14.5 3.8 26.3 4.2 37.6l1.5-0.2z"/> <path class="st1" d="m268.5 303c-10.8-4.3-25.9-4.9-33.4-14.8-7.7-10.3-1.2-25.5-3.6-37.3-5.2-25-33.9-17.4-51.9-21-13.9-2.8-23.9-11.1-32-22.5l-3.4 3.4c9 6.2 21.9 3.1 31.6 0.3 1.7-0.5 2.1-2.2 1.5-3.7-3.6-8.4-1.6-17.7 0.2-26.4h-4.8c5 19.5 33.2 17 48.5 20.3 11.5 2.5 24.6 5.1 32.5 14.7 9.9 12 9.4 28.6 7.4 43.1-1.1 7.8-2.5 15.1-1.4 23 1.1 7.8 3.8 15.3 4.2 23.2 0.1 1.8 1.5 2.6 3.2 2.4 0.5-0.1 1-0.1 1.5-0.2 3.2-0.4 1.8-5.3-1.3-4.8-0.5 0.1-1 0.1-1.5 0.2 1.1 0.8 2.1 1.6 3.2 2.4-0.3-6.2-2-12.2-3.3-18.3-1.7-8.2-1.4-15.5-0.2-23.7 2-13.2 3.4-27.4-1.8-40.1-9.4-22.7-35.1-26.8-56.9-29.4-10.2-1.2-26-2.4-29.1-14.4-0.6-2.3-4.3-2.5-4.8 0-2.1 10.2-3.9 20.3 0.3 30.2 0.5-1.2 1-2.4 1.5-3.7-8.4 2.4-19.9 5.6-27.8 0.2-2-1.4-4.9 1.4-3.4 3.4 6.4 8.9 13.9 16.9 24.1 21.4 11.1 4.8 22.4 4.4 34.2 4.9 13 0.5 24.5 5 25.5 19.7 0.8 11.8-3.9 25.3 4.2 35.5 8.5 10.8 23.9 11.6 35.8 16.3 2.9 1.7 4.2-3.1 1.2-4.3z"/> <path class="st0" d="m309.7 305.4c11.6-4.7 26.8-5.4 34.7-15.6 8.7-11.5 0.1-28.3 5-41.7 7.4-18.1 27-13.2 44.6-15 18.3-2.4 28.5-10.8 38-24.4-7 5.4-20.6 2.8-29.7 0.1 4.1-8.6 2.1-18.8 0.1-28.3-3.5 15.8-27.9 15.2-41.6 17.5-17.6 3.9-34.4 6.5-42.5 22.3-8 14.4-5.5 31.8-2.9 47.7 2.6 14.5-3.8 26.3-4.2 37.6l-1.5-0.2z"/> <path class="st1" d="m310.4 307.9c10.8-4.2 23.4-5.1 32.5-12.9 10.3-8.7 7.8-21.7 7.5-33.7-0.2-6.8 0.6-13.8 5.7-18.8 4.1-4.1 10-5.4 15.5-5.9 11.7-1.1 23.2 0.3 34.6-3.6 12.1-4.1 20.8-12.7 28.1-22.9 1.4-2-1.4-4.8-3.4-3.4-7.8 5.4-19.4 2.2-27.8-0.2 0.5 1.2 1 2.4 1.5 3.7 4.2-9.9 2.5-20 0.3-30.2-0.5-2.5-4.2-2.3-4.8 0-2.7 10.5-15.4 12.5-24.5 13.8-11 1.5-21.7 2.9-32.4 5.9-10.7 3.1-20.6 8.3-26.3 18.2-7.3 12.6-7.2 27-5.4 41.1 1.1 8.7 2.7 16.7 1.1 25.4-1.3 7.1-3.5 14.1-3.9 21.4 1.1-0.8 2.1-1.6 3.2-2.4-0.5-0.1-1-0.1-1.5-0.2-3.1-0.4-4.5 4.4-1.3 4.8 0.5 0.1 1 0.1 1.5 0.2 1.6 0.2 3.1-0.6 3.2-2.4 0.3-6.8 2.5-13.4 3.7-20 1.2-6.4 1.2-12.6 0.2-19.1-2.4-15.2-4.6-31.5 3.2-45.6 11.5-20.8 41-19.4 61.3-23.3 9.7-1.9 20-5.9 22.7-16.4h-4.8c1.8 8.6 3.8 17.9 0.2 26.4-0.6 1.5-0.2 3.2 1.5 3.7 9.7 2.8 22.6 5.9 31.6-0.3l-3.4-3.4c-7 9.7-15.4 17.8-27.1 21.3-11 3.3-22.4 1.6-33.7 3.1-9.6 1.2-18 5.7-21.8 15-4.7 11.6 1.2 24.2-2.2 35.9-4.3 14.8-24.1 15.5-36.1 20.3-3 0.8-1.7 5.6 1.3 4.5z"/> <path class="st2" d="m417 504.3c3.4 52-247.3 43.1-244.4 0 3.2-47.8 0-191.4 0-191.4h244.4s-3.1 143.6 0 191.4z"/> <path class="st1" d="m414.5 504.3c0.5 8.9-7.5 14.6-14.6 18.3-12.1 6.2-26 9-39.3 11.1-35.1 5.5-71.6 5.1-106.9 1.3-15.9-1.7-31.8-4.2-47.2-8.7-9.6-2.8-21.2-6.3-28.1-13.9-2.4-2.6-3.4-5.2-3.2-8.7 0.3-7.9 0.7-15.8 0.9-23.7 0.5-21.5 0.5-42.9 0.4-64.4-0.1-21.4-0.3-42.8-0.7-64.1-0.1-7.8-0.3-15.6-0.4-23.3-0.1-4.4 0.3-9.1-0.3-13.4-0.1-0.6 0-1.2 0-1.7l-2.5 2.5h82.4 131.9 30.1l-2.5-2.5c-1.1 49.5-1.8 99-1.2 148.5 0.1 14.1 0.3 28.4 1.2 42.7 0.2 3.2 5.2 3.2 5 0-1.8-28.3-1.5-56.8-1.4-85.1 0.1-29.3 0.5-58.6 1-88 0.1-6.1 0.2-12.2 0.4-18.3 0-1.4-1.2-2.5-2.5-2.5h-82.4-131.9-30.1c-1.3 0-2.5 1.1-2.5 2.5 0.7 30.4 1.1 60.9 1.3 91.3 0.2 22.8 0.2 45.5-0.2 68.3-0.2 9-0.4 17.9-0.8 26.8-0.2 4.7-0.7 8.8 1.8 13 5 8.5 16 12.9 24.8 16.1 14.8 5.3 30.4 8.1 45.9 10.2 36.7 5 74.7 5.7 111.5 0.9 14.6-1.9 29.4-4.6 43.1-10.4 8.5-3.6 18.4-9.2 21.2-18.7 0.6-2 0.8-4.1 0.7-6.1-0.1-3.2-5.1-3.3-4.9 0z"/> <path class="st2" d="m434.3 340.4h-279s-17.7-68.5 0-72.3c57.2-12.2 216.9-12.2 279.1 0 17.7 3.4-0.1 72.3-0.1 72.3z"/> <path class="st1" d="m434.3 337.9h-94.8-149.8-34.5l2.4 1.8c-2.1-8.1-3.7-16.3-5.1-24.6-2-12.1-5-27-1.2-39 1.7-5.3 4.8-5.7 9.9-6.7 6.2-1.1 12.5-2 18.9-2.8 16.1-1.9 32.4-3 48.6-3.8 38.3-1.9 76.6-2 114.9-0.6 17.6 0.6 35.1 1.6 52.7 3.2 7.6 0.7 15.3 1.5 22.9 2.6 3 0.4 5.9 0.9 8.9 1.4 2.2 0.4 5.4 0.4 7.3 1.7 4.2 2.8 4.2 10.6 4.4 14.9 0.2 7.8-0.6 15.6-1.7 23.3-1.5 10.2-3.5 20.4-6 30.4-0.8 3.1 4 4.4 4.8 1.3 2.3-9.1 4.2-18.3 5.6-27.5 2-12.4 4.9-27.9 0.4-40.1-1.7-4.6-4.5-7.2-9.3-8.1-6.7-1.3-13.6-2.2-20.4-3.1-17.1-2.1-34.2-3.3-51.4-4.2-40.9-2.1-81.9-2.3-122.8-0.6-17.6 0.7-35.2 1.7-52.7 3.6-7.1 0.7-14.3 1.6-21.3 2.8-4.7 0.8-11.1 0.9-14.6 4.4-4.1 4.1-4.8 10.8-5.1 16.2-0.4 7.8 0.4 15.7 1.4 23.4 1.5 11.2 3.6 22.3 6.4 33.3 0.3 1.1 1.3 1.8 2.4 1.8h94.8 149.8 34.5c2.9 0 3-5-0.3-5z"/> <path class="st0" d="m327.1 541.6s-24.5 1.7-32.3 1.7c-12.3 0-31.1-3.3-31.1-3.3v-196.8h62.2l1.2 198.4z"/> <path class="st1" d="m327.1 539.1c-9.6 0.7-19.2 1.3-28.8 1.6-11.3 0.4-22.8-1.2-33.9-3.1 0.6 0.8 1.2 1.6 1.8 2.4v-66.5-106-24.3l-2.5 2.5h62.2l-2.5-2.5c0.1 22.3 0.3 44.5 0.4 66.8 0.2 35.7 0.4 71.4 0.7 107 0 8.2 0.1 16.4 0.1 24.5 0 3.2 5 3.2 5 0-0.1-22.3-0.3-44.5-0.4-66.8-0.2-35.7-0.4-71.4-0.7-107 0-8.2-0.1-16.4-0.1-24.5 0-1.4-1.1-2.5-2.5-2.5h-62.2c-1.4 0-2.5 1.1-2.5 2.5v66.5 106 24.3c0 1 0.8 2.2 1.8 2.4 11.3 1.9 22.9 3.6 34.4 3.3 9.9-0.3 19.8-1 29.7-1.6 3.2-0.2 3.2-5.2 0-5z"/> <rect class="st0" x="253.6" y="260.8" width="65.1" height="82.4"/> <path class="st1" d="m318.7 340.7h-65.1l2.5 2.5v-82.4l-2.5 2.5h65.1l-2.5-2.5v82.4c0 3.2 5 3.2 5 0v-82.4c0-1.4-1.1-2.5-2.5-2.5h-65.1c-1.4 0-2.5 1.1-2.5 2.5v82.4c0 1.4 1.1 2.5 2.5 2.5h65.1c3.2 0 3.2-5 0-5z"/> <path class="st0" d="m247.8 201.4c17.6 0.1 42.2 56.6 42.2 56.6s-59.9 21.2-70.2 6.9c-10.2-14.1 10.7-63.7 28-63.5z"/> <path class="st1" d="m247.8 203.9c5.5 0.2 10.1 5.6 13.3 9.4 5.1 6 9.3 12.7 13.3 19.5 4.9 8.5 9.5 17.4 13.4 26.4 0.5-1.2 1-2.4 1.5-3.7-15.3 5.4-31.6 10.1-47.7 11.5-6.8 0.6-18.5 1.8-21.2-6.5-3.2-10 1.5-22.9 5.4-32 3.7-8.2 11.3-24.3 22-24.6 3.2-0.1 3.2-5.1 0-5-10.6 0.3-18.2 11.8-22.8 20.1-6 10.8-11 24.2-10.4 36.8 0.5 9.8 5.8 15.2 15.5 16.3 11.7 1.3 24.1-1.5 35.3-4.3 8.5-2.1 17-4.5 25.2-7.4 1.7-0.6 2.2-2.1 1.5-3.7-4.5-10.3-9.7-20.4-15.6-30-5.9-9.8-15.6-27.2-28.8-27.8-3.1-0.2-3.1 4.8 0.1 5z"/> <path class="st0" d="m324.4 201.4c-17.6 0.1-42.2 56.6-42.2 56.6s59.9 21.2 70.2 6.9c10.2-14.1-10.6-63.7-28-63.5z"/> <path class="st1" d="m324.4 198.9c-13.2 0.6-22.9 18-28.8 27.8-5.8 9.6-11.1 19.7-15.6 30-0.7 1.5-0.2 3.1 1.5 3.7 17.7 6.2 37.5 12.4 56.4 12 9-0.2 17.3-2.9 19.2-12.7 2.2-11.9-2.4-25.1-7.4-35.7-4.5-9.7-12.9-24.8-25.3-25.1-3.2-0.1-3.2 4.9 0 5 9.5 0.3 16.4 13.3 20 20.6 4.8 9.7 9.4 21.9 8 33-1.2 9.6-10 10.2-18.1 9.9-10.8-0.4-21.6-3-32-5.8-6.6-1.8-13.1-3.7-19.5-6 0.5 1.2 1 2.4 1.5 3.7 3.9-9 8.5-17.9 13.4-26.4 3.9-6.7 8-13.3 13-19.2 3.3-3.9 8.1-9.5 13.7-9.8 3.2-0.2 3.2-5.2 0-5z"/> <path class="st3" d="m279.6 236.7c2.6 3.7-11.1 2.8-20.2-2.1s-13.8-11.6-12.8-15.8c2.1-9.1 13.5-5.7 20.2 2.1 9.2 10.7 9.2 10.7 12.8 15.8z"/> <path class="st1" d="m277.5 237.9c0.9-1.5 0.7-2-0.5-1.5h-2c-1.9 0-3.7-0.4-5.5-0.8-3.7-0.8-7.1-2.2-10.4-4.1-3.5-2.1-7.5-5-9.3-8.8-1.5-3.2-0.4-6.8 3.6-6.8 7.4-0.1 12.8 8.1 17 13 2.5 2.9 4.9 5.9 7.1 9 1.8 2.6 6.2 0.1 4.3-2.5-4.9-6.9-10.5-14.9-17.2-20-6.2-4.7-18.6-7.6-20.4 3.2-1.7 10.2 12.1 18.1 19.9 20.7 2.9 1 22.6 5.3 17.7-3.9-1.5-2.8-5.8-0.3-4.3 2.5z"/> <path class="st3" d="m293.5 236.8c-2.5 3.7 11.1 2.6 20.1-2.5s13.5-11.8 12.5-16c-2.3-9-13.6-5.4-20.1 2.5-9 10.9-9 10.9-12.5 16z"/> <path class="st1" d="m291.3 235.6c-4.8 9.3 14.8 4.6 17.7 3.6 7.7-2.8 21.4-10.9 19.5-21.1-2-10.8-14.3-7.7-20.4-2.8-6.5 5.2-12 13.3-16.8 20.3-1.8 2.7 2.5 5.2 4.3 2.5 2-3 4.2-5.9 6.5-8.7 4.1-5 9.5-13.7 16.9-13.8 4-0.1 5.6 3.2 4 6.7-1.6 3.6-5.2 6.4-8.4 8.5-3.4 2.2-7.1 3.8-11 4.8-1.8 0.4-3.7 0.8-5.5 0.9-0.7 0-1.3 0.1-2 0-1.2-0.4-1.4 0.1-0.5 1.6 1.5-2.9-2.8-5.4-4.3-2.5z"/> <path class="st1" d="m276 248.7c-7.9 0.7-18.2 2.2-23.5-5.2-0.9-1.3-3.1-0.1-2.2 1.3 5.9 8.3 16.6 7.2 25.7 6.4 1.6-0.1 1.6-2.6 0-2.5z"/> <path class="st1" d="m295.2 251.2c8.4 2.4 18.9 0.1 26.3-4.5 1.4-0.8 0.1-3-1.3-2.2-6.8 4.2-16.5 6.5-24.3 4.2-1.6-0.4-2.3 2-0.7 2.5z"/> <path class="st1" d="m273.7 252.7c-4.5 3.5-10.2 4.7-15.7 5.4-1.6 0.2-1.6 2.7 0 2.5 6.3-0.8 12.4-2.2 17.5-6.1 1.2-1-0.6-2.8-1.8-1.8z"/> <path class="st1" d="m297.8 255.4c3.7 2.6 8.3 3.8 12.6 5.2 1.5 0.5 2.2-1.9 0.7-2.4-4.1-1.3-8.4-2.4-12-4.9-1.4-1-2.6 1.2-1.3 2.1z"/> <path class="st0" d="m300.8 255.1c0 8.1-6.6 14.7-14.7 14.7s-14.7-6.6-14.7-14.7v-11c0-8.1 6.6-14.7 14.7-14.7s14.7 6.6 14.7 14.7v11z"/> <path class="st1" d="m298.3 255.1c-0.5 12.2-17.2 17-23.1 5.6-2.3-4.5-1.7-11.7-1.4-16.7 0.7-11.8 16.5-17.1 22.8-6.2 2.9 4.9 1.7 11.9 1.7 17.3 0 3.2 5 3.2 5 0 0-6.7 1.1-14.3-2.7-20.3-5.2-8.2-16.6-10.4-24.5-4.8-7.5 5.4-7.2 13.6-7.2 21.9 0 8.4 2.8 16.3 11.4 19.4 11.4 4.1 22.5-4.6 23-16.2 0.2-3.2-4.8-3.2-5 0z"/> </svg>